<svg xmlns="http://www.w3.org/2000/svg" id="ic_picture" viewBox="0 0 100 75">
    <defs>
        <style>
            .cls-1{fill:#898989}
        </style>
    </defs>
    <g id="그룹_849" data-name="그룹 849">
        <path id="패스_608" d="M95.136 4.96v65.08H4.864V4.96h90.272M100 0H0v75h100V0z" class="cls-1" data-name="패스 608"/>
    </g>
    <g id="그룹_850" data-name="그룹 850" transform="translate(.005 33.676)">
        <path id="패스_609" d="M70.156 210.851a2.332 2.332 0 0 1-1.712-.734l-33.716-34.385-30.544 33.234a2.4 2.4 0 0 1-3.444 0 2.514 2.514 0 0 1 0-3.512l32.276-35a2.4 2.4 0 0 1 3.444 0l35.428 36.131a2.514 2.514 0 0 1 0 3.512 2.351 2.351 0 0 1-1.732.754z" class="cls-1" data-name="패스 609" transform="translate(-.025 -169.725)"/>
    </g>
    <g id="그룹_851" data-name="그룹 851" transform="translate(54.553 40.383)">
        <path id="패스_610" d="M322.561 231.122a2.456 2.456 0 0 1-1.79-.794l-18.988-21.012-17.51 13a2.4 2.4 0 0 1-3.4-.556 2.514 2.514 0 0 1 .545-3.472L300.673 204a2.407 2.407 0 0 1 3.21.317l20.447 22.639a2.515 2.515 0 0 1-.136 3.512 2.351 2.351 0 0 1-1.633.654z" class="cls-1" data-name="패스 610" transform="translate(-280.401 -203.528)"/>
    </g>
    <g id="그룹_852" data-name="그룹 852" transform="translate(59.825 10.02)">
        <path id="패스_611" d="M320.438 76.889a13.2 13.2 0 1 1 12.938-13.194 13.075 13.075 0 0 1-12.938 13.194zm0-21.429a8.236 8.236 0 1 0 8.074 8.234 8.16 8.16 0 0 0-8.074-8.234z" class="cls-1" data-name="패스 611" transform="translate(-307.5 -50.5)"/>
    </g>
</svg>
